<?xml version="1.0" encoding="UTF-8" standalone="no"?>
<!-- Created with Inkscape (http://www.inkscape.org/) -->
<svg
   xmlns:dc="http://purl.org/dc/elements/1.1/"
   xmlns:cc="http://web.resource.org/cc/"
   xmlns:rdf="http://www.w3.org/1999/02/22-rdf-syntax-ns#"
   xmlns:svg="http://www.w3.org/2000/svg"
   xmlns="http://www.w3.org/2000/svg"
   xmlns:sodipodi="http://sodipodi.sourceforge.net/DTD/sodipodi-0.dtd"
   xmlns:inkscape="http://www.inkscape.org/namespaces/inkscape"
   id="BlackletterG"
   sodipodi:version="0.32"
   inkscape:version="0.45.1"
   width="58"
   height="67.380455"
   version="1.0"
   sodipodi:docbase="/home/julio/Documentos/Wikipedia/My files"
   sodipodi:docname="Blackletter G.svg"
   inkscape:output_extension="org.inkscape.output.svg.inkscape">
  <metadata
     id="metadata7">
    <rdf:RDF>
      <cc:Work
         rdf:about="">
        <dc:format>image/svg+xml</dc:format>
        <dc:type
           rdf:resource="http://purl.org/dc/dcmitype/StillImage" />
      </cc:Work>
    </rdf:RDF>
  </metadata>
  <defs
     id="defs5" />
  <sodipodi:namedview
     inkscape:window-height="720"
     inkscape:window-width="910"
     inkscape:pageshadow="2"
     inkscape:pageopacity="0.0"
     guidetolerance="10.0"
     gridtolerance="10.0"
     objecttolerance="10.0"
     borderopacity="1.0"
     bordercolor="#666666"
     pagecolor="#ffffff"
     id="base"
     inkscape:zoom="1"
     inkscape:cx="29"
     inkscape:cy="33.690229"
     inkscape:window-x="141"
     inkscape:window-y="49"
     inkscape:current-layer="BlackletterG" />
  <path
     style="font-size:72px;font-style:normal;font-weight:normal;fill:#000000;fill-opacity:1;stroke:none;stroke-width:1px;stroke-linecap:butt;stroke-linejoin:miter;stroke-opacity:1;font-family:Code2001"
     d="M 28.015623,13.932419 L 33.640623,8.7292938 L 31.390623,14.213669 C 28.718724,16.651211 28.425756,20.166833 30.511717,24.760544 L 35.117186,39.385544 C 35.304655,44.073059 31.882783,47.073056 24.851561,48.385544 C 26.773413,46.698056 27.910131,44.635558 28.261717,42.198044 L 22.742186,24.479294 C 22.062481,21.385581 23.152323,18.573084 26.011717,16.041794 C 24.582009,13.604339 22.695293,12.85434 20.351561,13.791794 C 17.187486,16.041837 15.47655,22.88558 15.218748,34.323044 C 14.984363,46.791806 19.824202,53.635549 29.738279,54.854294 C 39.184143,54.861127 47.927068,46.435555 47.848525,39.158927 C 47.769983,31.746452 44.782953,29.357631 40.109373,28.557419 L 34.484373,30.807419 L 33.359373,28.557419 C 33.359373,28.557419 35.984373,25.768356 36.734373,24.057419 C 37.484373,22.346481 37.531248,21.830857 37.859373,20.119919 C 38.187498,18.408982 37.578123,17.869919 37.859373,15.619919 C 38.140623,13.369919 37.718748,12.737107 38.984373,11.119919 C 40.249998,9.5027314 40.742185,9.8542938 42.921873,9.1511688 C 45.10156,8.4480438 47.703123,8.3074188 47.703123,8.3074188 C 47.703123,8.3074188 48.054685,8.7292938 47.421873,9.4324188 C 46.336585,10.620299 44.82579,11.220058 43.484373,11.963669 C 42.57031,12.807419 42.148435,13.088669 41.515623,14.494919 C 40.88281,15.901169 41.304685,15.268356 40.953123,17.588669 C 40.60156,19.908981 41.093748,21.385544 40.109373,23.776169 C 39.124998,26.166794 37.015623,27.151169 37.015623,27.151169 L 40.671873,25.744919 C 48.392486,26.534004 50.667275,31.737316 50.787318,38.777965 C 50.842479,52.237621 40.964101,57.871037 29.738279,59.073044 C 22.871074,59.073044 17.445298,57.080858 13.460936,53.096481 C 9.4765558,49.112116 7.4843703,42.85431 7.4843731,34.323044 C 7.9765573,20.260582 12.054678,12.057466 19.718748,9.7136688 C 23.726542,9.0574687 26.492164,10.463717 28.015623,13.932419"
     id="Blackletter G"
     sodipodi:nodetypes="cccccccccccczccczzzzzccczzzccccsccc" />
</svg>
